# xmcd
#
# Track frame offsets: 
#        150
#        12367
#        35680
#        48864
#        64489
#        83164
#        99481
#        111823
#        128889
#        141866
#        154458
#        167506
#        176443
#        188653
#        198607
#        210667
#        225642
#        237792
#        254989
#        262610
#        277116
#        287033
#        298473
#        322008
#        337050
#        350234
#
# Disc length: 4822 seconds
#
# Revision: 0
# Processed by: cddbd v1.5.2PL0 Copyright (c) Steve Scherf et al.
# Submitted via: ExactAudioCopy v0.95a5
#
DISCID=9e12d41a
DTITLE=J.J.CALE - The Best Of  CD-1
DYEAR=2005
DGENRE=Blues
TTITLE0=If You Leave Her
TTITLE1=Sensitive Kind
TTITLE2=Lies
TTITLE3=You Keep Me Hangin' On
TTITLE4=Artificial Paradise
TTITLE5=Chains of Love
TTITLE6=Losers
TTITLE7=Devil's Nurse
TTITLE8=The Woman That Got Away
TTITLE9=Lou-Easy-Ann
TTITLE10=This Town
TTITLE11=Hold On
TTITLE12=Runaround
TTITLE13=Can't Live Here
TTITLE14=Lady Luck
TTITLE15=Lean On Me
TTITLE16=Super Blue
TTITLE17=These Blues
TTITLE18=Drifters Wife
TTITLE19=I'll Make Love To You
TTITLE20=Takin' Care of Business
TTITLE21=Miss of St. Louie
TTITLE22=Pack My Jack
TTITLE23=One Step
TTITLE24=Louisiana Women
TTITLE25=Clyde
EXTD=
EXTT0=
EXTT1=
EXTT2=
EXTT3=
EXTT4=
EXTT5=
EXTT6=
EXTT7=
EXTT8=
EXTT9=
EXTT10=
EXTT11=
EXTT12=
EXTT13=
EXTT14=
EXTT15=
EXTT16=
EXTT17=
EXTT18=
EXTT19=
EXTT20=
EXTT21=
EXTT22=
EXTT23=
EXTT24=
EXTT25=
PLAYORDER=
